# xmcd CD database file
#
# Track frame offsets:
#	150
#	25437
#	40372
#	59857
#	87595
#	103585
#	123570
#	140180
#	163057
#	173990
#	196177
#	216182
#
# Disc length: 3212 seconds
#
# Revision: 0
# Processed by: cddbd v1.5.2PL0 Copyright (c) Steve Scherf et al.
# Submitted via: CDex 1.70beta3
#
DISCID=be0c8a0c
DTITLE=Shizuko Yokoyama - My Mother
DYEAR=2002
DGENRE=Jazz
TTITLE0=My Mother
TTITLE1=Together
TTITLE2=Today
TTITLE3=Blue Silence
TTITLE4=Cat's Blues
TTITLE5=Good est
TTITLE6=Maiko
TTITLE7=New York City
TTITLE8=Fizzy's Dream
TTITLE9=Pretty Baby
TTITLE10=Full Gallop
TTITLE11=Have You Met Miss Jones
EXTD=YEAR: 2002
EXTT0=
EXTT1=
EXTT2=
EXTT3=
EXTT4=
EXTT5=
EXTT6=
EXTT7=
EXTT8=
EXTT9=
EXTT10=
EXTT11=
PLAYORDER=
